<?xml version="1.0" encoding="UTF-8" standalone="no"?>
<!-- Created with Inkscape (http://www.inkscape.org/) -->
<svg xmlns:dc="http://purl.org/dc/elements/1.1/" xmlns:cc="http://creativecommons.org/ns#" xmlns:rdf="http://www.w3.org/1999/02/22-rdf-syntax-ns#" xmlns:svg="http://www.w3.org/2000/svg" xmlns="http://www.w3.org/2000/svg" xmlns:xlink="http://www.w3.org/1999/xlink" xmlns:sodipodi="http://sodipodi.sourceforge.net/DTD/sodipodi-0.dtd" xmlns:inkscape="http://www.inkscape.org/namespaces/inkscape" width="240.91" height="104.03" id="svg2" sodipodi:version="0.32" inkscape:version="0.46" sodipodi:docname="blackfeather.svg" inkscape:output_extension="org.inkscape.output.svg.inkscape" version="1.0">
  <defs id="defs4">
    <linearGradient inkscape:collect="always" id="linearGradient4125">
      <stop style="stop-color:#000000;stop-opacity:1;" offset="0" id="stop4127"/>
      <stop style="stop-color:#000000;stop-opacity:0;" offset="1" id="stop4129"/>
    </linearGradient>
    <linearGradient id="linearGradient3876">
      <stop style="stop-color:#ffffff;stop-opacity:1;" offset="0" id="stop3878"/>
      <stop id="stop3884" offset="0.64247584" style="stop-color:#7f7f7f;stop-opacity:1;"/>
      <stop style="stop-color:#1a1a1a;stop-opacity:1;" offset="1" id="stop3880"/>
    </linearGradient>
    <linearGradient id="linearGradient3866">
      <stop style="stop-color:#7f8084;stop-opacity:1;" offset="0" id="stop3868"/>
      <stop style="stop-color:#33343c;stop-opacity:1;" offset="1" id="stop3870"/>
    </linearGradient>
    <linearGradient inkscape:collect="always" id="linearGradient3848">
      <stop style="stop-color:#0e0b08;stop-opacity:1" offset="0" id="stop3850"/>
      <stop style="stop-color:#4b422e;stop-opacity:0;" offset="1" id="stop3852"/>
    </linearGradient>
    <inkscape:perspective sodipodi:type="inkscape:persp3d" inkscape:vp_x="0 : 526.18109 : 1" inkscape:vp_y="0 : 1000 : 0" inkscape:vp_z="744.09448 : 526.18109 : 1" inkscape:persp3d-origin="372.04724 : 350.78739 : 1" id="perspective10"/>
    <inkscape:perspective id="perspective2801" inkscape:persp3d-origin="372.04724 : 350.78739 : 1" inkscape:vp_z="744.09448 : 526.18109 : 1" inkscape:vp_y="0 : 1000 : 0" inkscape:vp_x="0 : 526.18109 : 1" sodipodi:type="inkscape:persp3d"/>
    <inkscape:perspective id="perspective2871" inkscape:persp3d-origin="372.04724 : 350.78739 : 1" inkscape:vp_z="744.09448 : 526.18109 : 1" inkscape:vp_y="0 : 1000 : 0" inkscape:vp_x="0 : 526.18109 : 1" sodipodi:type="inkscape:persp3d"/>
    <inkscape:perspective id="perspective3840" inkscape:persp3d-origin="372.04724 : 350.78739 : 1" inkscape:vp_z="744.09448 : 526.18109 : 1" inkscape:vp_y="0 : 1000 : 0" inkscape:vp_x="0 : 526.18109 : 1" sodipodi:type="inkscape:persp3d"/>
    <linearGradient inkscape:collect="always" xlink:href="#linearGradient3848" id="linearGradient3854" x1="307.14285" y1="274.50504" x2="437.85715" y2="306.29074" gradientUnits="userSpaceOnUse"/>
    <linearGradient inkscape:collect="always" xlink:href="#linearGradient4125" id="linearGradient4131" x1="274.13257" y1="393.36459" x2="328.09375" y2="393.36459" gradientUnits="userSpaceOnUse"/>
    <radialGradient inkscape:collect="always" xlink:href="#linearGradient3866" id="radialGradient4188" gradientUnits="userSpaceOnUse" gradientTransform="matrix(1.062155,-0.3274557,7.3056543e-2,0.2041912,-10.009476,513.34516)" cx="372.23856" cy="270.70752" fx="372.23856" fy="270.70752" r="110.25913"/>
    <linearGradient inkscape:collect="always" xlink:href="#linearGradient3876" id="linearGradient4190" gradientUnits="userSpaceOnUse" gradientTransform="matrix(1,0,0,1.0091769,40.07781,159.75914)" x1="334.9541" y1="279.60583" x2="343.59439" y2="306.08167"/>
    <radialGradient inkscape:collect="always" xlink:href="#linearGradient3866" id="radialGradient4294" gradientUnits="userSpaceOnUse" gradientTransform="matrix(1.062155,-0.3274557,7.3056543e-2,0.2041912,-10.009476,513.34516)" cx="372.23856" cy="270.70752" fx="372.23856" fy="270.70752" r="110.25913"/>
    <linearGradient inkscape:collect="always" xlink:href="#linearGradient3876" id="linearGradient4296" gradientUnits="userSpaceOnUse" gradientTransform="matrix(1,0,0,1.0091769,40.07781,159.75914)" x1="334.9541" y1="279.60583" x2="343.59439" y2="306.08167"/>
    <filter inkscape:collect="always" id="filter4442" x="-0.12939045" width="1.258781" y="-0.48331696" height="1.9666339">
      <feGaussianBlur inkscape:collect="always" stdDeviation="12.722489" id="feGaussianBlur4444"/>
    </filter>
  </defs>
  <sodipodi:namedview id="base" pagecolor="#ffffff" bordercolor="#666666" borderopacity="1.0" inkscape:pageopacity="0.0" inkscape:pageshadow="2" inkscape:zoom="1.4" inkscape:cx="1.6132844" inkscape:cy="103.47987" inkscape:document-units="px" inkscape:current-layer="layer1" showgrid="false" inkscape:window-width="1280" inkscape:window-height="727" inkscape:window-x="0" inkscape:window-y="25"/>
  <metadata id="metadata7">
    <rdf:RDF>
      <cc:Work rdf:about="">
        <dc:format>image/svg+xml</dc:format>
        <dc:type rdf:resource="http://purl.org/dc/dcmitype/StillImage"/>
      </cc:Work>
    </rdf:RDF>
  </metadata>
  <g inkscape:label="Capa 1" inkscape:groupmode="layer" id="layer1" transform="translate(-98.350303,-67.357931)">
    <g id="g4286" transform="matrix(0.8384644,0,0,1,-164.98478,-290.71428)" inkscape:export-filename="/home/toxicosmos/tucfeath.png" inkscape:export-xdpi="272.15427" inkscape:export-ydpi="272.15427">
      <g style="opacity:0.82291667;fill:#939393;fill-opacity:1;filter:url(#filter4442)" transform="matrix(1.1125606,6.1352274e-2,-4.6210021e-2,0.4122712,19.431319,226.94161)" id="g4192">
        <path style="fill:#939393;fill-opacity:1;fill-rule:evenodd;stroke:none;stroke-width:0.96044916px;stroke-linecap:butt;stroke-linejoin:miter;stroke-opacity:1" d="M 487.68304,411.00893 C 484.68622,410.77788 481.87127,410.45772 478.49554,410.41518 C 470.08841,413.19262 448.20748,416.36074 445.46429,417.32143 C 402.98721,424.60486 350.47958,441.47482 324.55804,456.54018 L 329.05804,468.54018 C 326.94732,464.84455 324.74086,461.34157 323.27679,456.35268 C 323.09452,459.18127 324.12175,464.1743 324.77679,465.88393 C 325.43182,467.59355 326.38736,469.25149 328.12054,471.85268 C 326.12888,471.00819 321.00396,460.09925 320.74554,458.97768 C 320.59168,458.31001 321.80088,469.30824 323.58929,470.66518 C 321.78233,469.1733 322.06624,469.00337 320.83929,467.82143 C 319.61233,466.63948 318.12756,463.88424 316.90179,462.75893 C 317.28609,465.25698 320.32277,471.15067 321.71429,472.16518 C 320.85376,472.13729 318.74112,469.69931 318.24554,469.13393 C 317.25439,468.00318 316.75622,465.17743 316.21429,464.19643 C 315.71183,464.59374 314.54619,467.5438 314.15179,468.19643 C 313.75738,468.84905 313.40295,469.60255 313.12054,470.44643 C 312.55572,472.13418 312.24507,474.12817 312.15179,476.19643 C 312.0585,478.26468 312.21087,480.41658 312.62054,482.35268 C 312.82537,483.32072 313.09657,484.23255 313.43304,485.07143 C 313.7695,485.9103 314.14852,486.67579 314.62054,487.32143 C 315.32318,488.08112 316.46442,488.80711 317.87054,489.47768 C 319.27665,490.14824 320.95264,490.76346 322.71429,491.29018 C 324.47593,491.81689 326.32006,492.2433 328.08929,492.57143 C 329.85851,492.89955 331.56667,493.12161 332.99554,493.19643 C 333.23585,493.10891 332.53973,492.41387 331.68304,491.04018 C 331.25469,490.35332 330.78079,489.47255 330.37054,488.44643 C 329.96028,487.4203 329.59905,486.22989 329.40179,484.85268 C 329.90989,486.2142 331.17715,488.64151 332.46429,490.19643 C 333.75143,491.75136 337.85428,493.34268 337.96429,493.22768 C 336.92512,491.75383 336.48981,491.01888 336.24554,488.66518 C 336.08321,487.10112 335.93136,486.9642 335.93304,486.07143 C 335.93527,484.8909 335.3571,484.34149 335.40179,484.04018 C 337.17305,485.60018 336.09892,490.61744 338.43304,492.69643 C 338.97628,493.1803 339.83579,492.9729 340.80804,493.13393 C 341.17727,493.07512 343.04874,493.22777 343.43304,493.16518 L 339.08929,483.41518 L 344.83929,492.91518 C 347.02121,492.656 351.33514,490.60934 351.37054,490.60268 C 349.43925,488.1154 347.24649,485.62119 344.83929,483.13393 C 346.60913,484.90006 352.14002,490.0493 352.62054,490.10268 C 354.86816,490.35235 420.55143,463.33869 438.12054,459.13393 L 433.40179,452.82143 L 440.02679,458.72768 C 456.66423,454.87533 469.83068,453.32797 491.33929,445.94643 C 494.11194,445.221 497.22353,443.13918 500.46429,440.63393 L 497.49554,431.29018 L 501.68304,439.66518 C 502.79644,438.77042 503.8264,438.01154 504.99554,437.00893 L 500.71429,430.57143 L 506.65179,435.60268 C 506.87324,435.41026 507.11589,435.20361 507.33929,435.00893 L 503.93304,430.57143 L 508.52679,433.97768 C 510.02553,432.66928 511.47239,431.38537 513.05804,430.04018 L 508.21429,428.79018 L 515.96429,427.75893 C 517.98103,426.11779 519.96697,424.45217 522.12054,422.94643 C 517.77618,418.36107 511.09579,414.96106 501.77679,412.85268 L 496.05804,417.00893 L 499.93304,412.41518 C 499.58975,412.34674 499.18941,412.32396 498.83929,412.25893 L 492.49554,416.63393 L 495.58929,411.72768 C 495.18583,411.66805 494.81351,411.59569 494.40179,411.54018 L 488.21429,417.72768 L 491.99554,411.29018 C 491.30449,411.21252 490.45863,411.23188 489.74554,411.16518 L 482.49554,419.13393 L 487.68304,411.00893 z" id="path4194"/>
        <path style="fill:#939393;fill-opacity:1;fill-rule:evenodd;stroke:none;stroke-width:1px;stroke-linecap:butt;stroke-linejoin:miter;stroke-opacity:1" d="M 502.57781,423.08731 C 416.59111,434.95497 343.93144,462.12317 289.72067,498.41515 C 289.17885,501.01909 290.07119,500.99045 292.0944,501.63706 C 342.99588,464.28574 426.95942,434.27005 502.57781,423.08731 z" id="path4196" sodipodi:nodetypes="cccc"/>
      </g>
      <g transform="matrix(0.9994793,3.2267325e-2,-3.2267325e-2,0.9994793,47.012011,-63.997607)" id="g4184">
        <path style="opacity:1;fill:url(#radialGradient4294);fill-opacity:1;fill-rule:evenodd;stroke:none;stroke-width:0.96044916px;stroke-linecap:butt;stroke-linejoin:miter;stroke-opacity:1" d="M 487.68304,411.00893 C 484.68622,410.77788 481.87127,410.45772 478.49554,410.41518 C 470.08841,413.19262 448.20748,416.36074 445.46429,417.32143 C 402.98721,424.60486 350.47958,441.47482 324.55804,456.54018 L 329.05804,468.54018 C 326.94732,464.84455 324.74086,461.34157 323.27679,456.35268 C 323.09452,459.18127 324.12175,464.1743 324.77679,465.88393 C 325.43182,467.59355 326.38736,469.25149 328.12054,471.85268 C 326.12888,471.00819 321.00396,460.09925 320.74554,458.97768 C 320.59168,458.31001 321.80088,469.30824 323.58929,470.66518 C 321.78233,469.1733 322.06624,469.00337 320.83929,467.82143 C 319.61233,466.63948 318.12756,463.88424 316.90179,462.75893 C 317.28609,465.25698 320.32277,471.15067 321.71429,472.16518 C 320.85376,472.13729 318.74112,469.69931 318.24554,469.13393 C 317.25439,468.00318 316.75622,465.17743 316.21429,464.19643 C 315.71183,464.59374 314.54619,467.5438 314.15179,468.19643 C 313.75738,468.84905 313.40295,469.60255 313.12054,470.44643 C 312.55572,472.13418 312.24507,474.12817 312.15179,476.19643 C 312.0585,478.26468 312.21087,480.41658 312.62054,482.35268 C 312.82537,483.32072 313.09657,484.23255 313.43304,485.07143 C 313.7695,485.9103 314.14852,486.67579 314.62054,487.32143 C 315.32318,488.08112 316.46442,488.80711 317.87054,489.47768 C 319.27665,490.14824 320.95264,490.76346 322.71429,491.29018 C 324.47593,491.81689 326.32006,492.2433 328.08929,492.57143 C 329.85851,492.89955 331.56667,493.12161 332.99554,493.19643 C 333.23585,493.10891 332.53973,492.41387 331.68304,491.04018 C 331.25469,490.35332 330.78079,489.47255 330.37054,488.44643 C 329.96028,487.4203 329.59905,486.22989 329.40179,484.85268 C 329.90989,486.2142 331.17715,488.64151 332.46429,490.19643 C 333.75143,491.75136 337.85428,493.34268 337.96429,493.22768 C 336.92512,491.75383 336.48981,491.01888 336.24554,488.66518 C 336.08321,487.10112 335.93136,486.9642 335.93304,486.07143 C 335.93527,484.8909 335.3571,484.34149 335.40179,484.04018 C 337.17305,485.60018 336.09892,490.61744 338.43304,492.69643 C 338.97628,493.1803 339.83579,492.9729 340.80804,493.13393 C 341.17727,493.07512 343.04874,493.22777 343.43304,493.16518 L 339.08929,483.41518 L 344.83929,492.91518 C 347.02121,492.656 351.33514,490.60934 351.37054,490.60268 C 349.43925,488.1154 347.24649,485.62119 344.83929,483.13393 C 346.60913,484.90006 352.14002,490.0493 352.62054,490.10268 C 354.86816,490.35235 420.55143,463.33869 438.12054,459.13393 L 433.40179,452.82143 L 440.02679,458.72768 C 456.66423,454.87533 469.83068,453.32797 491.33929,445.94643 C 494.11194,445.221 497.22353,443.13918 500.46429,440.63393 L 497.49554,431.29018 L 501.68304,439.66518 C 502.79644,438.77042 503.8264,438.01154 504.99554,437.00893 L 500.71429,430.57143 L 506.65179,435.60268 C 506.87324,435.41026 507.11589,435.20361 507.33929,435.00893 L 503.93304,430.57143 L 508.52679,433.97768 C 510.02553,432.66928 511.47239,431.38537 513.05804,430.04018 L 508.21429,428.79018 L 515.96429,427.75893 C 517.98103,426.11779 519.96697,424.45217 522.12054,422.94643 C 517.77618,418.36107 511.09579,414.96106 501.77679,412.85268 L 496.05804,417.00893 L 499.93304,412.41518 C 499.58975,412.34674 499.18941,412.32396 498.83929,412.25893 L 492.49554,416.63393 L 495.58929,411.72768 C 495.18583,411.66805 494.81351,411.59569 494.40179,411.54018 L 488.21429,417.72768 L 491.99554,411.29018 C 491.30449,411.21252 490.45863,411.23188 489.74554,411.16518 L 482.49554,419.13393 L 487.68304,411.00893 z" id="path4150"/>
        <path style="fill:url(#linearGradient4296);fill-opacity:1;fill-rule:evenodd;stroke:none;stroke-width:1px;stroke-linecap:butt;stroke-linejoin:miter;stroke-opacity:1" d="M 502.57781,423.08731 C 416.59111,434.95497 343.93144,462.12317 289.72067,498.41515 C 289.17885,501.01909 290.07119,500.99045 292.0944,501.63706 C 342.99588,464.28574 426.95942,434.27005 502.57781,423.08731 z" id="path4143" sodipodi:nodetypes="cccc"/>
      </g>
    </g>
  </g>
</svg>